<svg width="28" height="28" viewBox="0 0 28 28" fill="none" xmlns="http://www.w3.org/2000/svg">
<path d="M0.865854 10.5076V11.0076H1.36585H23.2195H23.7195V10.5076V6.46206V5.96206H23.2195H1.36585H0.865854V6.46206V10.5076ZM23.4024 22.9091V27.5H23.0366V22.9091V22.4091H22.5366H18.939V21.7121H22.5366H23.0366V21.2121V16.6212H23.4024V21.2121V21.7121H23.9024H27.5V22.4091H23.9024H23.4024V22.9091ZM24.0854 2.74289V12.2273H22.5366C20.4756 12.2273 18.7288 13.1401 17.316 14.8966C15.9057 16.6498 15.2083 18.7643 15.2073 21.2119V21.2121V23.2576H2.20722C1.74056 23.2576 1.3549 23.0738 1.0219 22.6601C0.684176 22.2405 0.500849 21.7037 0.5 21.015V2.7423C0.5 2.05515 0.683118 1.5192 1.02156 1.09961C1.35598 0.685027 1.74178 0.500948 2.20634 0.5H22.3795C22.8446 0.5 23.2298 0.683751 23.5631 1.09879C23.9014 1.52002 24.0846 2.05667 24.0854 2.74289Z" fill="#808080" stroke="#808080"/>
</svg>
