<svg width="32" height="31" viewBox="0 0 32 31" fill="none" xmlns="http://www.w3.org/2000/svg">
<path d="M27.3966 4.44354H30.0719C30.8974 4.44354 31.9675 5.60139 31.9522 6.41783C31.6618 10.1141 33.1447 14.5525 29.2922 16.8979C27.9775 17.6995 26.5864 17.7886 25.0729 17.744C23.2384 20.1933 20.2879 21.8411 17.154 22.0786V24.3646H21.0982C22.1377 24.3646 23.483 25.656 23.804 26.5764C24.0486 27.2741 24.0792 29.2335 23.9875 29.9906C23.9263 30.5101 23.5136 30.9555 22.9632 31L8.82238 30.9703C8.53191 30.8961 8.11915 30.4656 8.05801 30.1984C7.95099 29.7085 7.99686 27.9272 8.04272 27.378C8.14973 26.1162 9.55617 24.3794 10.932 24.3794H14.8762V22.0934C11.7576 21.8411 8.7918 20.1933 6.95731 17.7589C5.45914 17.8034 4.08328 17.7292 2.78384 16.9424C-1.16031 14.5525 0.337857 10.1438 0.0473959 6.40299C0.0321084 5.60139 1.1328 4.42869 1.92775 4.42869H4.60305V1.83094C4.60305 1.05904 5.81075 0.00509028 6.63628 0.00509028H25.2258C26.1124 -0.0839756 27.3966 1.0145 27.3966 1.83094V4.42869V4.44354ZM25.1188 2.23174H6.88087V11.5243C7.85927 22.6278 24.1251 22.6278 25.1035 11.5243V2.23174H25.1188ZM4.60305 6.65534H2.32522V12.504C2.32522 12.5931 2.44752 13.0532 2.49338 13.172C2.87557 14.4338 4.15971 15.4432 5.53558 15.4432C4.19029 12.697 4.71006 9.60935 4.60305 6.67018V6.65534ZM29.6744 6.65534H27.3966C27.3049 9.60936 27.8094 12.6821 26.4641 15.4283C27.8399 15.4283 29.1241 14.4189 29.5063 13.1571C29.5368 13.0384 29.6744 12.5634 29.6744 12.4892V6.64049V6.65534ZM21.6944 28.7734V27.4967C21.6944 27.4077 21.4345 26.9624 21.3428 26.8733C21.1746 26.71 20.823 26.5912 20.5937 26.5616C17.6432 26.7248 14.4634 26.3389 11.5435 26.5616C11.1155 26.5912 10.7333 26.6952 10.504 27.0663C10.4734 27.1256 10.3053 27.4671 10.3053 27.4967V28.7734H21.6944Z" fill="url(#paint0_linear_2_2186)"/>
<defs>
<linearGradient id="paint0_linear_2_2186" x1="8.30769" y1="5.06731" x2="21.7451" y2="34.0153" gradientUnits="userSpaceOnUse">
<stop stop-color="#A7B5FE"/>
<stop offset="1" stop-color="#75E1ED"/>
</linearGradient>
</defs>
</svg>
