<svg width="28" height="29" viewBox="0 0 28 29" fill="none" xmlns="http://www.w3.org/2000/svg">
<g clip-path="url(#clip0_58_832)">
<path d="M13.3349 5.64412L13.3349 5.64411L13.3319 5.64433C11.9418 5.74729 10.5833 6.1092 9.32576 6.709L7.65738 7.50473L9.49939 7.65857C10.7985 7.76706 11.8016 8.03657 12.6573 8.45321C13.5137 8.87014 14.2468 9.44617 14.9937 10.1992L14.9936 10.1992L14.9976 10.2032C15.7615 10.9563 16.2328 11.5904 16.5197 12.2529C16.7538 12.7935 16.8762 13.3787 16.9131 14.1025H14.7268H13.6818L13.648 14.0647L8.46212 8.27455L8.08971 7.85874L7.71725 8.27451L2.53025 14.0647L1.78346 14.8983H2.90267H4.90797C5.05913 17.1077 6.34371 19.3437 7.94255 20.9538L7.94578 20.957C11.0504 24.0267 15.4242 23.8295 18.6726 22.2949L20.3562 21.4995L18.5006 21.3445C17.2017 21.2361 16.199 20.966 15.3434 20.5489C14.4871 20.1313 13.7538 19.5547 13.0062 18.8014L13.0062 18.8014L13.0025 18.7977C12.2392 18.0446 11.7682 17.4105 11.4816 16.748C11.2476 16.2074 11.1254 15.6222 11.0889 14.8983H13.2755H14.3206L14.3544 14.9361L19.5402 20.7262L19.9127 21.1421L20.2852 20.7262L25.4698 14.936L26.2162 14.1025H25.0973H23.0942C22.9422 11.8933 21.6589 9.6573 20.0611 8.04711L20.0611 8.04709L20.0578 8.04381C18.1229 6.13009 15.6798 5.48452 13.3349 5.64412ZM0.5 14.4998C0.5 7.07038 6.5432 1.04297 14 1.04297C21.4568 1.04297 27.5 7.07038 27.5 14.4998C27.5 21.9292 21.4579 27.9566 14 27.9566C6.5432 27.9566 0.5 21.9292 0.5 14.4998Z" fill="#808080" stroke="#808080"/>
</g>
<defs>
<clipPath id="clip0_58_832">
<rect width="28" height="28" fill="white" transform="translate(0 0.5)"/>
</clipPath>
</defs>
</svg>
