<svg width="24" height="20" viewBox="0 0 24 20" fill="none" xmlns="http://www.w3.org/2000/svg">
<path fill-rule="evenodd" clip-rule="evenodd"  d="M0.906816 5.82274C0.307739 6.77128 0.307739 7.91549 0.307739 10.2039V11.725C0.307739 15.6258 0.307739 17.5763 1.65955 18.7881C3.01137 20 5.18708 20 9.53851 20H14.1539C18.5053 20 20.6811 20 22.0328 18.7881C23.3847 17.5763 23.3847 15.6258 23.3847 11.725V10.2039C23.3847 7.91549 23.3847 6.77128 22.7856 5.82274C22.1865 4.87421 21.0921 4.28551 18.9031 3.10812L16.5954 1.86687C14.2815 0.62229 13.1245 0 11.8462 0C10.5679 0 9.41088 0.62229 7.097 1.86687L4.78931 3.10813C2.60037 4.28551 1.50589 4.87421 0.906816 5.82274ZM8.89998 13.3975C8.51603 13.1508 7.97404 13.2206 7.68944 13.5534C7.40484 13.8862 7.48538 14.3559 7.86934 14.6025C8.99135 15.3233 10.3635 15.75 11.8462 15.75C13.3289 15.75 14.701 15.3233 15.823 14.6025C16.207 14.3559 16.2876 13.8862 16.0029 13.5534C15.7184 13.2206 15.1764 13.1508 14.7924 13.3975C13.952 13.9373 12.9376 14.25 11.8462 14.25C10.7548 14.25 9.74043 13.9373 8.89998 13.3975Z" fill="#fff"/>
<!-- <defs>
<linearGradient id="paint0_linear_31_56" x1="6.29886" y1="3.26923" x2="14.3392" y2="22.6306" gradientUnits="userSpaceOnUse">
<stop stop-color="#A7B5FE"/>
<stop offset="1" stop-color="#75E1ED"/>
</linearGradient>
</defs> -->
</svg>
