<svg width="24" height="24" viewBox="0 0 24 24" fill="none" xmlns="http://www.w3.org/2000/svg">
<path d="M19.0384 0.949219H4.96451C2.22849 0.949219 0 3.17771 0 5.91373V13.1563C0 15.8953 2.22849 18.1208 4.96451 18.1208H5.14827C5.14827 18.1208 5.15119 18.1208 5.15411 18.1208H6.73505C7.21925 18.1208 7.61011 17.73 7.61011 17.2458C7.61011 16.7616 7.21925 16.3707 6.73505 16.3707H5.26203H4.96159C3.18814 16.3707 1.7472 14.9269 1.7472 13.1563V5.91373C1.7472 4.14027 3.19106 2.69934 4.96159 2.69934H19.0355C20.8089 2.69934 22.2499 4.14319 22.2499 5.91373V13.1563C22.2499 14.9298 20.806 16.3707 19.0355 16.3707H18.7351V16.3853C18.6942 16.3795 18.6534 16.3736 18.6096 16.3736H17.0287C16.5445 16.3736 16.1536 16.7645 16.1536 17.2487C16.1536 17.7329 16.5445 18.1237 17.0287 18.1237H18.6096C18.6534 18.1237 18.6942 18.1179 18.7351 18.1121V18.1237H19.0355C21.7744 18.1237 24 15.8953 24 13.1592V5.91665C24 3.17771 21.7715 0.952136 19.0355 0.952136L19.0384 0.949219Z" fill="#2A2C29"/>
<path d="M12.003 13.0783C13.9573 13.0783 15.5441 11.4886 15.5441 9.53717C15.5441 7.58579 13.9544 5.99609 12.003 5.99609C10.0516 5.99609 8.46191 7.58579 8.46191 9.53717C8.46191 11.4886 10.0516 13.0783 12.003 13.0783ZM12.003 7.74622C12.9918 7.74622 13.794 8.55127 13.794 9.53717C13.794 10.5231 12.9889 11.3281 12.003 11.3281C11.0171 11.3281 10.212 10.5231 10.212 9.53717C10.212 8.55127 11.0171 7.74622 12.003 7.74622Z" fill="#2A2C29"/>
<path d="M9.72773 18.5121L11.1278 17.112L11.1278 22.1757C11.1278 22.6599 11.5187 23.0508 12.0029 23.0508C12.4871 23.0508 12.8779 22.6599 12.8779 22.1757L12.8779 17.112L14.278 18.5121C14.6193 18.8534 15.1735 18.8534 15.5148 18.5121C15.8561 18.1709 15.8561 17.6167 15.5148 17.2754L12.6213 14.3818C12.4492 14.2097 12.2275 14.1252 12.0029 14.1252C11.7783 14.1252 11.5537 14.2097 11.3845 14.3818L8.49098 17.2754C8.1497 17.6167 8.1497 18.1709 8.49098 18.5121C8.83225 18.8534 9.38645 18.8534 9.72773 18.5121Z" fill="#2A2C29"/>
</svg>
