<svg width="28" height="24" viewBox="0 0 28 24" fill="none" xmlns="http://www.w3.org/2000/svg">
<path d="M15.5769 9.75C15.5769 9.33579 15.1895 9 14.7116 9H7.78848C7.31055 9 6.9231 9.33579 6.9231 9.75C6.9231 10.1643 7.31055 10.5001 7.78848 10.5001H14.7116C15.1895 10.5001 15.5769 10.1643 15.5769 9.75Z" fill="white"/>
<path d="M14.4231 12.75C14.4231 12.3357 14.0356 12 13.5577 12H7.78848C7.31055 12 6.9231 12.3357 6.9231 12.75C6.9231 13.1642 7.31055 13.5 7.78848 13.5H13.5577C14.0356 13.5 14.4231 13.1642 14.4231 12.75Z" fill="white"/>
<path d="M14.7116 15C15.1895 15 15.5769 15.3357 15.5769 15.75C15.5769 16.1642 15.1895 16.5 14.7116 16.5H7.78848C7.31055 16.5 6.9231 16.1642 6.9231 15.75C6.9231 15.3357 7.31055 15 7.78848 15H14.7116Z" fill="white"/>
<path fill-rule="evenodd" clip-rule="evenodd" d="M6.92311 21.7502H21.9231C23.6756 21.7502 25.0962 20.5189 25.0962 19.0002V13.5002C25.0962 13.0859 24.7087 12.7502 24.2308 12.7502H20.4808V4.94339C20.4808 3.51999 18.6244 2.69202 17.2879 3.51936L17.086 3.64439C16.1854 4.20188 14.9655 4.20001 14.0607 3.6399C12.5563 2.70857 10.5207 2.70857 9.01627 3.6399C8.11148 4.20001 6.89161 4.20188 5.99105 3.64439L5.78908 3.51936C4.45261 2.69202 2.59619 3.51999 2.59619 4.94339V18.0002C2.59619 20.0712 4.53342 21.7502 6.92311 21.7502ZM10.0223 4.8605C10.9249 4.3017 12.1521 4.3017 13.0548 4.8605C14.5571 5.79052 16.5853 5.79763 18.0919 4.86499L18.2939 4.73996C18.4849 4.62177 18.75 4.74005 18.75 4.94339V19.0002C18.75 19.4503 18.8748 19.8751 19.0961 20.2502H6.92311C5.4893 20.2502 4.32696 19.2428 4.32696 18.0002V4.94339C4.32696 4.74005 4.59216 4.62177 4.78309 4.73996L4.98507 4.86499C6.49163 5.79763 8.51992 5.79052 10.0223 4.8605ZM20.4808 19.0002V14.2502H23.3654V19.0002C23.3654 19.6905 22.7197 20.2502 21.9231 20.2502C21.1265 20.2502 20.4808 19.6905 20.4808 19.0002Z" fill="white"/>
</svg>
