<svg width="24" height="18" viewBox="0 0 24 18" fill="none" xmlns="http://www.w3.org/2000/svg">
<path d="M8.44702 9.01455C8.44702 10.9661 10.0344 12.5506 11.9831 12.5506C13.9317 12.5506 15.5191 10.9631 15.5191 9.01455C15.5191 7.06594 13.9317 5.47852 11.9831 5.47852C10.0344 5.47852 8.44702 7.06594 8.44702 9.01455ZM13.7744 9.01455C13.7744 10.002 12.9705 10.8029 11.986 10.8029C11.0015 10.8029 10.1976 9.99904 10.1976 9.01455C10.1976 8.03005 11.0015 7.22614 11.986 7.22614C12.9705 7.22614 13.7744 8.03005 13.7744 9.01455Z" fill="#2A2C29"/>
<path d="M18.0589 7.232H22.1454C22.6289 7.232 23.0192 6.8417 23.0192 6.35819C23.0192 5.87468 22.6289 5.48438 22.1454 5.48438H20.1677L23.7445 1.90757C24.0853 1.56678 24.0853 1.01337 23.7445 0.672582C23.4037 0.331795 22.8503 0.331795 22.5095 0.672582L18.9327 4.24939V2.27166C18.9327 1.78815 18.5424 1.39785 18.0589 1.39785C17.5754 1.39785 17.1851 1.78815 17.1851 2.27166V6.35819C17.1851 6.8417 17.5754 7.232 18.0589 7.232Z" fill="#2A2C29"/>
<path d="M23.0978 7.9251C22.6143 7.9251 22.224 8.31541 22.224 8.79892V11.0475V12.6262C22.224 14.3971 20.7822 15.836 19.0142 15.836H4.95743C3.1865 15.836 1.74763 14.3942 1.74763 12.6262V5.39396C1.74763 3.62303 3.18942 2.18415 4.95743 2.18415H12.2072H15.548C16.0316 2.18415 16.4219 1.79385 16.4219 1.31034C16.4219 0.826829 16.0316 0.436526 15.548 0.436526H11.7557C11.7557 0.436526 11.747 0.436526 11.7411 0.436526H4.95743C2.22531 0.433614 0 2.65892 0 5.39396V12.6262C0 15.3613 2.22531 17.5836 4.95743 17.5836H19.0113C21.7463 17.5836 23.9687 15.3583 23.9687 12.6262V12.3932C23.9687 12.3932 23.9687 12.3757 23.9687 12.367V8.79892C23.9687 8.31541 23.5784 7.9251 23.0949 7.9251H23.0978Z" fill="#2A2C29"/>
</svg>
