<svg width="24" height="20" viewBox="0 0 24 20" fill="none" xmlns="http://www.w3.org/2000/svg">
<path d="M21.8504 4.66448H16.0313C15.5522 4.66448 15.1654 4.2777 15.1654 3.79855C15.1654 3.3194 15.5522 2.93262 16.0313 2.93262H21.8504C22.3295 2.93262 22.7163 3.3194 22.7163 3.79855C22.7163 4.2777 22.3295 4.66448 21.8504 4.66448Z" fill="#2A2C29"/>
<path d="M20.2715 7.53009C20.0492 7.53009 19.8269 7.44639 19.6595 7.27609C19.3218 6.93837 19.3218 6.38995 19.6595 6.05224L21.911 3.80082L19.6595 1.5494C19.3218 1.21169 19.3218 0.663263 19.6595 0.32555C19.9972 -0.0121626 20.5457 -0.0121626 20.8834 0.32555L23.7467 3.18889C24.0844 3.52661 24.0844 4.07503 23.7467 4.41274L20.8834 7.27609C20.7131 7.44639 20.4937 7.53009 20.2715 7.53009Z" fill="#2A2C29"/>
<path d="M11.8777 14.937C9.94376 14.937 8.37354 13.3639 8.37354 11.4328C8.37354 9.50182 9.94664 7.92871 11.8777 7.92871C13.8087 7.92871 15.3818 9.50182 15.3818 11.4328C15.3818 13.3639 13.8087 14.937 11.8777 14.937ZM11.8777 9.65769C10.8992 9.65769 10.1054 10.4543 10.1054 11.43C10.1054 12.4056 10.9021 13.2022 11.8777 13.2022C12.8533 13.2022 13.6499 12.4056 13.6499 11.43C13.6499 10.4543 12.8533 9.65769 11.8777 9.65769Z" fill="#2A2C29"/>
<path d="M23.7611 9.65806C23.7611 9.17891 23.3744 8.79213 22.8952 8.79213C22.4161 8.79213 22.0293 9.17891 22.0293 9.65806V11.4303H22.0235V15.0153C22.0235 16.7702 20.5947 18.1961 18.8426 18.1961H4.91271C3.15776 18.1961 1.73186 16.7673 1.73186 15.0153V7.84826C1.73186 6.09331 3.16065 4.66741 4.91271 4.66741H12.4232C12.9024 4.66741 13.2891 4.28063 13.2891 3.80148C13.2891 3.32233 12.9024 2.93555 12.4232 2.93555H4.91271C2.20524 2.93266 0 5.1379 0 7.84826V15.0153C0 17.7256 2.20524 19.928 4.91271 19.928H18.8398C21.5501 19.928 23.7525 17.7228 23.7525 15.0153V14.8998C23.7525 14.8796 23.7582 14.8623 23.7582 14.8421V9.65806H23.7611Z" fill="#2A2C29"/>
</svg>
