<svg width="24" height="24" viewBox="0 0 24 24" fill="none" xmlns="http://www.w3.org/2000/svg">
    <path
        d="M22.6759 24H4.59601C3.12512 24 1.9604 23.574 1.14176 22.7321C-0.00299598 21.5641 -0.00299601 20.0632 0.000331777 19.8968V0.998336C0.000331777 0.445923 0.446255 0 0.998668 0C1.55108 0 1.997 0.445923 1.997 0.998336V19.9201C1.997 19.9401 2.00366 20.772 2.57937 21.3511C3.01198 21.7837 3.68752 22.0033 4.59268 22.0033H22.6759C23.2283 22.0033 23.6742 22.4493 23.6742 23.0017C23.6742 23.5541 23.2283 24 22.6759 24Z"
        fill="url(#paint0_linear_31_56)" />
    <path
        d="M5.09182 19.0941C4.85887 19.0941 4.62593 19.0143 4.43624 18.8479C4.02027 18.4852 3.97701 17.8562 4.33974 17.4402L8.83225 12.2822C8.83225 12.2822 8.84889 12.2655 8.85554 12.2555C8.982 12.1191 10.1268 10.9477 11.7141 10.9477C11.7308 10.9477 11.7474 10.9477 11.764 10.9477C12.4362 10.9577 13.4379 11.1973 14.3897 12.2755C14.7823 12.7214 15.175 12.9577 15.5577 12.9777C16.0236 13.0043 16.4229 12.7015 16.5194 12.6183L21.3946 7.02426C21.7574 6.60828 22.3863 6.56502 22.8023 6.92775C23.2183 7.29048 23.2615 7.91943 22.8988 8.3354L17.9837 13.976C17.967 13.996 17.9471 14.0159 17.9271 14.0359C17.8239 14.1357 16.8788 15.0276 15.4945 14.971C14.5394 14.9344 13.6642 14.4718 12.8921 13.5933C12.5095 13.1607 12.1301 12.9477 11.7341 12.9411C11.7274 12.9411 11.7208 12.9411 11.7174 12.9411C11.0918 12.9411 10.4762 13.4502 10.3231 13.6066L5.84722 18.748C5.65089 18.9743 5.37135 19.0908 5.09514 19.0908L5.09182 19.0941Z"
        fill="url(#paint0_linear_31_56)" />
    <defs>
        <linearGradient id="paint0_linear_31_56" x1="6.29886" y1="3.26923" x2="14.3392" y2="22.6306"
            gradientUnits="userSpaceOnUse">
            <stop stop-color="#A7B5FE" />
            <stop offset="1" stop-color="#75E1ED" />
        </linearGradient>
    </defs>
</svg>