<svg width="24" height="24" viewBox="0 0 24 24" fill="none" xmlns="http://www.w3.org/2000/svg">
<path d="M19.0384 0.949219H4.96451C2.22849 0.949219 0 3.17771 0 5.91373V13.1563C0 15.8953 2.22849 18.1208 4.96451 18.1208H5.14827C5.14827 18.1208 5.15119 18.1208 5.15411 18.1208H6.73505C7.21925 18.1208 7.61011 17.73 7.61011 17.2458C7.61011 16.7616 7.21925 16.3707 6.73505 16.3707H5.26203H4.96159C3.18814 16.3707 1.7472 14.9269 1.7472 13.1563V5.91373C1.7472 4.14027 3.19106 2.69934 4.96159 2.69934H19.0355C20.8089 2.69934 22.2499 4.14319 22.2499 5.91373V13.1563C22.2499 14.9298 20.806 16.3707 19.0355 16.3707H18.7351V16.3853C18.6942 16.3795 18.6534 16.3736 18.6096 16.3736H17.0287C16.5445 16.3736 16.1536 16.7645 16.1536 17.2487C16.1536 17.7329 16.5445 18.1237 17.0287 18.1237H18.6096C18.6534 18.1237 18.6942 18.1179 18.7351 18.1121V18.1237H19.0355C21.7744 18.1237 24 15.8953 24 13.1592V5.91665C24 3.17771 21.7715 0.952136 19.0355 0.952136L19.0384 0.949219Z" fill="#2A2C29"/>
<path d="M12.0029 13.0783C13.9572 13.0783 15.544 11.4886 15.544 9.53717C15.544 7.58579 13.9543 5.99609 12.0029 5.99609C10.0515 5.99609 8.46179 7.58579 8.46179 9.53717C8.46179 11.4886 10.0515 13.0783 12.0029 13.0783ZM12.0029 7.74622C12.9917 7.74622 13.7938 8.55127 13.7938 9.53717C13.7938 10.5231 12.9888 11.3281 12.0029 11.3281C11.017 11.3281 10.2119 10.5231 10.2119 9.53717C10.2119 8.55127 11.017 7.74622 12.0029 7.74622Z" fill="#2A2C29"/>
<path d="M14.2781 18.6636L12.878 20.0637V15.0001C12.878 14.5159 12.4872 14.125 12.003 14.125C11.5188 14.125 11.1279 14.5159 11.1279 15.0001V20.0637L9.72781 18.6636C9.38654 18.3224 8.83234 18.3224 8.49106 18.6636C8.14979 19.0049 8.14979 19.5591 8.49106 19.9004L11.3846 22.7939C11.5567 22.966 11.7784 23.0506 12.003 23.0506C12.2276 23.0506 12.4522 22.966 12.6213 22.7939L15.5149 19.9004C15.8562 19.5591 15.8562 19.0049 15.5149 18.6636C15.1736 18.3224 14.6194 18.3224 14.2781 18.6636Z" fill="#2A2C29"/>
</svg>
